<?xml version="1.0" encoding="UTF-8" standalone="no"?>
<!-- Created with Inkscape (http://www.inkscape.org/) -->

<svg
   xmlns:dc="http://purl.org/dc/elements/1.1/"
   xmlns:cc="http://creativecommons.org/ns#"
   xmlns:rdf="http://www.w3.org/1999/02/22-rdf-syntax-ns#"
   xmlns:svg="http://www.w3.org/2000/svg"
   xmlns="http://www.w3.org/2000/svg"
   xmlns:sodipodi="http://sodipodi.sourceforge.net/DTD/sodipodi-0.dtd"
   xmlns:inkscape="http://www.inkscape.org/namespaces/inkscape"
   width="156.0854mm"
   height="238.40442mm"
   viewBox="0 0 156.0854 238.40441"
   version="1.1"
   id="svg8"
   inkscape:version="0.92.4 (5da689c313, 2019-01-14)"
   sodipodi:docname="scissor.svg">
  <defs
     id="defs2" />
  <sodipodi:namedview
     id="base"
     pagecolor="#ffffff"
     bordercolor="#666666"
     borderopacity="1.0"
     inkscape:pageopacity="0.0"
     inkscape:pageshadow="2"
     inkscape:zoom="0.24748737"
     inkscape:cx="948.3908"
     inkscape:cy="257.77742"
     inkscape:document-units="mm"
     inkscape:current-layer="layer1"
     showgrid="false"
     inkscape:window-width="1366"
     inkscape:window-height="715"
     inkscape:window-x="0"
     inkscape:window-y="0"
     inkscape:window-maximized="1"
     inkscape:snap-global="false" />
  <metadata
     id="metadata5">
    <rdf:RDF>
      <cc:Work
         rdf:about="">
        <dc:format>image/svg+xml</dc:format>
        <dc:type
           rdf:resource="http://purl.org/dc/dcmitype/StillImage" />
        <dc:title></dc:title>
      </cc:Work>
    </rdf:RDF>
  </metadata>
  <g
     inkscape:label="Camada 1"
     inkscape:groupmode="layer"
     id="layer1"
     transform="translate(208.47023,-32.937706)">
    <path
       style="fill:#ffc92a;fill-opacity:1;stroke:#000000;stroke-width:2;stroke-linecap:butt;stroke-linejoin:miter;stroke-miterlimit:4;stroke-dasharray:none;stroke-opacity:1"
       d="m -181.99957,240.02596 c -10.05658,-14.65023 -20.17575,-56.1561 -6.32723,-71.50247 9.53567,-8.4763 21.23951,-14.03557 32.02961,-20.72372 7.99162,-7.15312 4.29902,-17.76814 3.43048,-26.86681 -2.37991,-21.207647 -5.9943,-42.363027 -6.56346,-63.71916 -0.14646,-9.299916 8.53131,-17.837786 17.7184,-12.855529 8.05344,5.002924 6.48716,15.899723 8.04759,24.018346 2.73649,22.975052 3.62887,46.218363 7.77405,68.998223 5.01948,5.75049 18.54082,4.99362 16.99792,-5.33085 6.11478,-23.32526 11.43125,-46.922095 19.13026,-69.789015 4.61062,-6.149338 18.75455,-8.734598 21.50958,0.712765 4.79032,8.953838 1.85901,18.427767 -1.68302,27.116262 -6.38857,20.413788 -12.3498,40.958178 -18.3261,61.495528 -1.28415,13.06062 0.50636,26.06706 3.61929,38.7448 1.30174,10.34298 5.7572,21.5515 1.68179,31.70919 -5.33041,13.4476 -8.059015,28.8552 -22.31002,35.38735 -5.3526,1.66488 -17.53594,4.72001 -38.27007,3.77176 -20.73412,-0.94826 -27.14783,-4.68867 -38.45907,-21.16667 z"
       id="path10"
       inkscape:connector-curvature="0"
       sodipodi:nodetypes="sccccccccccccccczs" />
    <ellipse
       style="fill:#000000;fill-opacity:0.13942309;stroke-width:0.35263291"
       id="path24-3-6-7"
       cx="-260.08365"
       cy="-195.33408"
       rx="8.2641068"
       ry="33.963219"
       transform="matrix(-0.23202968,-0.97270871,0.99998879,-0.00473583,0,0)" />
  </g>
</svg>
